<?xml version="1.0" encoding="UTF-8" standalone="no"?>
<!-- Created with Inkscape (http://www.inkscape.org/) -->

<svg
   version="1.1"
   id="svg4133"
   width="330.88"
   height="390.72"
   viewBox="0 0 330.88 390.72"
   sodipodi:docname="lletres.svg"
   inkscape:version="1.2.2 (732a01da63, 2022-12-09)"
   xmlns:inkscape="http://www.inkscape.org/namespaces/inkscape"
   xmlns:sodipodi="http://sodipodi.sourceforge.net/DTD/sodipodi-0.dtd"
   xmlns="http://www.w3.org/2000/svg"
   xmlns:svg="http://www.w3.org/2000/svg">
  <defs
     id="defs4137" />
  <sodipodi:namedview
     id="namedview4135"
     pagecolor="#ffffff"
     bordercolor="#000000"
     borderopacity="0.25"
     inkscape:showpageshadow="2"
     inkscape:pageopacity="0.0"
     inkscape:pagecheckerboard="0"
     inkscape:deskcolor="#d1d1d1"
     showgrid="false"
     inkscape:zoom="2.0833333"
     inkscape:cx="68.88"
     inkscape:cy="195.6"
     inkscape:window-width="1920"
     inkscape:window-height="1001"
     inkscape:window-x="-9"
     inkscape:window-y="-9"
     inkscape:window-maximized="1"
     inkscape:current-layer="g4139" />
  <g
     inkscape:groupmode="layer"
     inkscape:label="Image"
     id="g4139">
    <path
       style="fill:none;stroke:#000000;stroke-width:0.52;stroke-dasharray:none;stroke-opacity:1"
       d="m 150.54915,286.90184 -0.22887,-4.13817 -1.16014,0.76262 c -2.56405,1.68549 -6.14002,1.72805 -8.9786,0.10686 -3.14341,-1.79527 -4.66073,-4.98339 -4.62279,-9.71315 0.0389,-4.85085 2.12934,-8.61607 5.70906,-10.28301 2.75907,-1.2848 6.9951,-0.80748 8.45137,0.9523 0.62654,0.75712 1.00082,0.65642 1.00082,-0.26929 0,-0.78222 0.0533,-0.8 2.4,-0.8 h 2.4 v 13.76 13.76 h -2.371 -2.37099 z m -2.48206,-7.37048 c 3.39094,-2.06757 3.24405,-9.35968 -0.22709,-11.2733 -1.71186,-0.94373 -3.88436,-0.65077 -5.29207,0.71364 -1.3529,1.31128 -1.86282,2.7717 -1.84396,5.28116 0.027,3.59978 1.93825,5.90475 4.89603,5.90475 0.86625,0 1.84924,-0.24952 2.46709,-0.62625 z m -116.999705,5.08128 c -2.671867,-0.52437 -5.394973,-2.90047 -6.386465,-5.57264 -1.278576,-3.44589 -1.100135,-7.59706 0.469158,-10.91428 0.96278,-2.03514 3.41079,-4.33689 5.174461,-4.8653 2.742802,-0.82177 7.051573,-0.13599 7.955983,1.26626 C 38.449734,264.78904 38.623126,263.0031 38.72,260 l 0.16,-4.96 2.483238,-0.0935 2.483236,-0.0935 -0.08324,14.65352 L 43.68,284.16 h -2.4 c -2.235846,0 -2.406909,-0.0486 -2.501027,-0.71062 l -0.101027,-0.71063 -1.178973,0.77491 c -1.112535,0.73124 -3.480781,1.4635 -4.538973,1.40346 -0.264,-0.015 -1.115677,-0.152 -1.892615,-0.30448 z m 5.288932,-5.06257 c 0.551501,-0.33629 1.316477,-1.2689 1.713427,-2.08888 0.600826,-1.24114 0.696854,-1.88186 0.592218,-3.95127 -0.212551,-4.20352 -1.563764,-5.95666 -4.596263,-5.96345 -3.104704,-0.007 -4.931643,2.29487 -4.931643,6.21353 0,3.82884 1.901588,6.40107 4.730498,6.3988 0.903772,-6.4e-4 1.889638,-0.24156 2.491763,-0.60873 z m 18.674803,4.98622 c -5.109686,-1.1327 -8.039187,-4.99073 -8.061232,-10.61629 -0.0055,-1.408 0.153958,-3.15866 0.35439,-3.89035 0.83664,-3.05421 3.823338,-6.03867 6.865373,-6.86024 0.731693,-0.19761 2.483799,-0.29919 3.893568,-0.22574 5.570205,0.2902 8.656349,3.57607 9.332381,9.93633 l 0.195571,1.84 h -7.512253 c -4.131737,0 -7.60254,0.0903 -7.712896,0.20065 -0.292729,0.29272 0.650032,2.38799 1.469252,3.26539 1.112336,1.19132 2.293171,1.65396 4.221584,1.65396 1.913075,0 3.708892,-0.70962 4.772739,-1.88595 0.335277,-0.37073 0.719789,-0.67405 0.85447,-0.67405 0.531645,0 3.803699,2.10247 3.809623,2.44789 0.01242,0.72325 -3.522864,3.58954 -5.194759,4.21177 -2.257008,0.83998 -5.129293,1.07513 -7.287811,0.59663 z m 6.880176,-13.6422 c 0.309741,-0.50118 -0.649552,-2.41614 -1.57504,-3.14413 -2.567155,-2.01933 -6.922502,-0.54677 -7.714362,2.60824 L 52.410618,271.2 h 4.655804 c 2.615773,0 4.73865,-0.13404 4.844874,-0.30591 z M 210.56,284.52713 c -2.2866,-0.52136 -3.57762,-1.22475 -5.16929,-2.81642 -1.58739,-1.58739 -2.41097,-3.38005 -2.78649,-6.06524 -0.74281,-5.31168 1.24463,-9.61783 5.48468,-11.88351 1.15591,-0.61766 1.83652,-0.72196 4.7111,-0.72196 3.02834,0 3.52078,0.0848 4.98881,0.85945 3.01493,1.59085 4.76002,4.56965 5.155,8.79943 l 0.18874,2.02112 h -7.51294 c -4.13212,0 -7.60323,0.0903 -7.71359,0.20065 -0.29273,0.29272 0.65003,2.38799 1.46925,3.26539 1.11234,1.19132 2.29317,1.65396 4.22159,1.65396 1.91307,0 3.70889,-0.70962 4.77274,-1.88595 0.33527,-0.37073 0.71832,-0.67405 0.8512,-0.67405 0.55001,0 3.8192,2.08461 3.8192,2.43532 0,0.7394 -3.52076,3.59898 -5.20107,4.22434 -2.27265,0.84581 -5.13329,1.07668 -7.27893,0.58747 z m 6.8713,-13.63304 c 0.10398,-0.16826 -0.0141,-0.79208 -0.26234,-1.38628 -1.4425,-3.45237 -6.58799,-3.61288 -8.47005,-0.26421 -0.3844,0.68395 -0.69891,1.40393 -0.69891,1.59997 0,0.45161 9.1531,0.50064 9.4313,0.0505 z m 15.57086,13.7303 c -5.30482,-1.07755 -8.66896,-5.79522 -8.29441,-11.63156 0.28128,-4.38294 2.84268,-8.07405 6.58154,-9.48433 2.39335,-0.90277 6.26051,-0.77519 8.2927,0.27356 1.48804,0.76794 3.15601,2.36527 4.02985,3.85917 l 0.57184,0.9776 -1.92271,0.97059 c -2.22436,1.12285 -2.78682,1.19436 -3.04309,0.38692 -0.10188,-0.32101 -0.61544,-0.99581 -1.14124,-1.49956 -1.28798,-1.23397 -4.10479,-1.48611 -5.66373,-0.50698 -3.11743,1.95798 -3.45833,8.33384 -0.58069,10.86044 2.61606,2.29693 5.97852,1.43596 8.04852,-2.06085 0.34716,-0.58646 0.4296,-0.57327 2.19109,0.35061 1.00669,0.528 1.89878,1.127 1.98242,1.33112 0.22846,0.55759 -0.71948,2.19277 -2.03217,3.50547 -2.18449,2.18449 -5.93634,3.29416 -9.01992,2.6678 z m -69.41451,-0.3456 c -1.57376,-0.45386 -3.41801,-2.46683 -3.85688,-4.20972 -0.22886,-0.90892 -0.37077,-4.3576 -0.37077,-9.01077 V 263.52 h 2.54298 2.54299 l 0.097,7.22683 0.097,7.22683 1.04505,0.93317 c 0.88136,0.78701 1.31608,0.93317 2.77545,0.93317 1.41359,0 1.91861,-0.15837 2.75846,-0.86506 1.73033,-1.45598 1.90104,-2.28253 1.90104,-9.20466 V 263.52 h 2.56 2.56 v 10.41346 10.41346 l -2.48,-0.0935 c -2.4456,-0.0922 -2.48141,-0.10575 -2.58186,-0.97969 l -0.10185,-0.88622 -0.917,0.65296 c -2.07399,1.47681 -5.85204,2.02259 -8.57164,1.23828 z m 99.19754,-0.31981 c -1.61953,-0.80165 -2.74668,-2.18235 -3.23198,-3.95898 -0.20684,-0.75721 -0.35037,-4.38408 -0.35142,-8.88 l -0.002,-7.6 h 2.54298 2.54299 l 0.097,7.22683 0.097,7.22683 1.04505,0.93317 c 0.88136,0.78701 1.31608,0.93317 2.77545,0.93317 1.41359,0 1.91861,-0.15837 2.75846,-0.86506 1.73033,-1.45598 1.90104,-2.28253 1.90104,-9.20466 V 263.52 h 2.56 2.56 v 10.41346 10.41346 l -2.48,-0.0935 c -2.4456,-0.0922 -2.48141,-0.10575 -2.58186,-0.97969 l -0.10185,-0.88622 -0.917,0.65296 c -2.40991,1.71601 -6.73242,2.14688 -9.2141,0.91847 z m 36.30232,0.3681 c -3.80381,-1.20519 -5.71955,-5.35312 -4.05779,-8.78585 1.24184,-2.5653 2.92431,-3.4014 10.01028,-4.9746 2.84976,-0.6327 3.12,-0.75692 3.12,-1.43421 0,-0.40784 -0.26876,-1.07342 -0.59724,-1.47908 -0.48681,-0.60118 -0.97496,-0.75888 -2.64,-0.85282 -2.3603,-0.13318 -3.96167,0.60623 -4.30886,1.98955 -0.19438,0.77445 -0.30606,0.80993 -2.5497,0.80993 -1.29054,0 -2.43337,-0.14068 -2.53964,-0.31262 -0.43342,-0.70129 0.57139,-3.07543 1.79456,-4.24015 1.78004,-1.69498 3.97793,-2.26971 8.08234,-2.11346 3.72938,0.14197 5.77956,0.90788 6.99631,2.6137 0.69104,0.9688 0.73009,1.36497 0.9041,9.17253 0.10003,4.488 0.29683,8.484 0.43732,8.88 0.2523,0.71111 0.22104,0.72 -2.53183,0.72 -2.51816,0 -2.80344,-0.0618 -2.95464,-0.64 -0.20796,-0.79525 -0.21387,-0.79503 -1.99169,0.075 -1.60424,0.78508 -5.51654,1.09709 -7.17352,0.57209 z m 5.92731,-4.17695 c 0.64615,-0.17947 1.61815,-0.74044 2.16,-1.2466 0.89554,-0.83657 0.98518,-1.10099 0.98518,-2.90615 0,-1.76345 -0.0627,-1.96072 -0.56,-1.76143 -0.308,0.12343 -1.82993,0.48306 -3.38207,0.79918 -3.04231,0.61963 -4.37793,1.45996 -4.37793,2.75448 0,1.1973 0.36772,1.78064 1.40789,2.23345 1.20418,0.52421 2.21438,0.55828 3.76693,0.12707 z M 82.146019,284.11935 C 82.021709,283.99504 81.92,277.36533 81.92,269.38667 V 254.88 h 2.563229 2.563229 l -0.08323,14.64 -0.08323,14.64 -2.253981,0.0927 c -1.239689,0.051 -2.355689,-0.009 -2.48,-0.13334 z m 13.145757,0.0258 c -0.108854,-0.10885 2.005219,-6.70203 4.697939,-14.65151 l 4.895855,-14.4536 3.19057,-0.0907 3.19057,-0.0907 4.92037,14.49068 c 2.7062,7.96987 4.8872,14.56268 4.84664,14.65068 -0.0405,0.088 -1.32931,0.16 -2.86391,0.16 h -2.79019 l -0.83782,-2.72 -0.83781,-2.72 H 108.16 102.61601 l -0.83699,2.72 -0.83698,2.72 -2.726174,0.0915 c -1.499396,0.0503 -2.815236,0.003 -2.92409,-0.1064 z M 112,273.38836 c 0,-0.71379 -3.61946,-12.42836 -3.84,-12.42836 -0.22054,0 -3.84,11.71457 -3.84,12.42836 0,0.26154 1.13758,0.37164 3.84,0.37164 2.70242,0 3.84,-0.1101 3.84,-0.37164 z m 11.42602,10.73099 C 123.30171,283.99504 123.2,279.30933 123.2,273.70667 V 263.52 h 2.56 2.56 v 1.18075 1.18075 l 0.99643,-1.01917 c 0.58208,-0.59537 1.67076,-1.21943 2.61808,-1.50075 2.79511,-0.83006 2.78549,-0.83706 2.78549,2.0275 v 2.50908 l -1.74046,0.38949 c -1.98235,0.44364 -3.14718,1.24085 -3.94593,2.70061 -0.45044,0.82319 -0.58343,2.14484 -0.71361,7.09174 l -0.16,6.08 -2.25398,0.0927 c -1.23969,0.051 -2.35569,-0.009 -2.48,-0.13334 z m 59.2,0 C 182.50171,283.99504 182.4,279.30933 182.4,273.70667 V 263.52 h 2.56443 2.56444 l -0.0844,10.32 -0.0844,10.32 -2.25398,0.0927 c -1.23969,0.051 -2.35569,-0.009 -2.48,-0.13334 z m 12.00194,-0.43612 c -2.14695,-0.97442 -2.30796,-1.65361 -2.30796,-9.73542 v -6.87274 l -1.52,-0.0975 -1.52,-0.0975 -0.0961,-1.66181 -0.0961,-1.66181 1.5361,-0.0982 1.53609,-0.0982 0.16,-3.68 0.16,-3.68 h 2.4 2.4 l 0.0902,3.76 0.0901,3.76 h 2.24657 2.24657 l -0.0967,1.68 -0.0967,1.68 -2.16,0.0946 -2.16,0.0946 v 6.0262 c 0,6.9157 -0.0102,6.88939 2.68884,6.92627 l 1.63116,0.0223 0.0976,1.68398 c 0.056,0.96614 -0.063,1.87752 -0.27918,2.138 -0.59826,0.72086 -5.22775,0.59913 -6.95048,-0.18275 z m 55.63479,0.0763 c -2.24559,-1.14505 -2.32435,-1.44246 -2.50875,-9.47348 l -0.16564,-7.2137 -1.31418,-0.0962 -1.31418,-0.0962 -0.0967,-1.68 -0.0967,-1.68 h 1.44657 1.44657 l 0.0901,-3.76 0.0902,-3.76 2.46973,-0.0933 2.46973,-0.0933 0.0903,3.77327 0.0903,3.77328 2.16,0.0946 2.16,0.0946 v 1.74538 1.74538 h -2.24 -2.24 v 5.77454 5.77455 l 0.82546,0.82546 c 0.71974,0.71974 1.00662,0.80063 2.24,0.63158 l 1.41454,-0.19389 v 2.03964 c 0,2.41802 -0.0147,2.42832 -3.46617,2.42762 -1.70363,-3.2e-4 -2.78929,-0.17155 -3.55108,-0.56 z m 32.19058,0.34717 C 282.336,283.98936 282.24,279.30936 282.24,273.7067 V 263.52 h 2.4 2.4 v 1.12 c 0,1.2595 0.29648,1.42356 0.88104,0.48751 0.54262,-0.86886 2.66305,-1.89919 4.39794,-2.13699 l 1.44102,-0.19751 v 2.58389 2.58388 l -1.44848,0.21722 c -2.58411,0.38751 -4.49352,2.17913 -4.97422,4.66739 -0.14819,0.76704 -0.2757,3.66261 -0.28336,6.43461 l -0.0139,5.04 h -2.18667 c -1.20266,0 -2.28266,-0.096 -2.4,-0.21333 z M 90.88,265.17746 c 0,-1.00913 0.147341,-1.30186 0.806426,-1.60216 0.764508,-0.34834 1.433574,-1.49496 1.433574,-2.45681 0,-0.27729 -0.443517,-0.47656 -1.2,-0.53917 l -1.2,-0.0993 -0.09246,-2.8 -0.09246,-2.8 H 93.267542 96 v 3.71164 c 0,2.79199 -0.131322,3.98838 -0.530013,4.82856 -0.562307,1.18497 -2.251286,2.45512 -3.709987,2.78998 -0.842861,0.19349 -0.88,0.1499 -0.88,-1.03272 z M 182.4,257.6 v -2.4 h 2.56 2.56 v 2.4 2.4 h -2.56 -2.56 z M 74.711798,247.77402 c -0.08742,-0.22782 -0.12134,-6.46217 -0.07537,-13.85412 L 74.72,220.48 h 2.4 c 2.245258,0 2.406592,0.0464 2.502256,0.72 0.109702,0.77242 0.522214,0.9429 0.880154,0.36374 0.446112,-0.72183 3.072396,-1.60946 4.761993,-1.60946 3.801466,0 6.685757,1.9136 8.364647,5.54957 0.849321,1.83937 0.93095,2.3248 0.93095,5.53615 0,3.20758 -0.07953,3.68196 -0.896115,5.34484 -1.064935,2.16861 -3.481082,4.45924 -5.268423,4.99474 -0.698342,0.20923 -2.177363,0.38042 -3.286713,0.38042 -1.648531,0 -2.32689,-0.17489 -3.713335,-0.95735 l -1.696332,-0.95735 -0.08954,4.07735 L 79.52,248 l -2.324627,0.0941 c -1.6776,0.0679 -2.368871,-0.0212 -2.483575,-0.32009 z m 12.377309,-11.3248 c 1.385325,-0.70759 2.260979,-2.47445 2.435555,-4.91437 0.188301,-2.63178 -0.239961,-4.05928 -1.610691,-5.36877 -1.716355,-1.63968 -4.176432,-1.89124 -6.109379,-0.62472 -2.02664,1.3279 -2.807062,5.96678 -1.468877,8.7311 1.291469,2.66782 4.050752,3.5572 6.753392,2.17676 z m -52.514611,5.28122 c -3.444612,-0.67523 -7.010726,-3.35448 -8.723965,-6.5544 -2.664967,-4.97751 -2.591088,-12.79199 0.165406,-17.49559 4.065527,-6.9373 14.518674,-8.73707 20.174681,-3.47358 1.431875,1.3325 3.408438,4.63774 3.409129,5.7008 2.18e-4,0.3318 -0.762067,0.6191 -3.199747,1.20598 -0.264,0.0636 -0.785264,0.20275 -1.158362,0.30931 -0.574208,0.16399 -0.810624,-0.0766 -1.53976,-1.56689 -0.92998,-1.90081 -1.880736,-2.7397 -3.817344,-3.36817 -1.414128,-0.45892 -3.977587,-0.22443 -5.359664,0.49027 -5.697586,2.94633 -6.326801,14.22553 -1.018627,18.25975 3.778227,2.87146 8.830253,1.50996 10.995715,-2.96328 l 0.650986,-1.34476 2.301555,0.94909 c 1.265853,0.52199 2.426413,1.07394 2.579018,1.22655 0.401245,0.40124 -1.252451,3.27276 -2.837363,4.92686 -3.179242,3.31805 -7.741383,4.65472 -12.621658,3.69806 z m 21.708726,-0.39248 C 53.382573,240.25264 51.84,238.18891 51.84,235.39358 c 0,-1.95092 0.416333,-3.11392 1.540358,-4.30289 1.334397,-1.41149 2.904231,-2.06068 7.475335,-3.09137 2.324195,-0.52405 4.363261,-1.09027 4.531254,-1.25827 0.471069,-0.47107 -0.351337,-2.12387 -1.263632,-2.53954 -0.436387,-0.19883 -1.567606,-0.36151 -2.513821,-0.36151 -1.383971,0 -1.912918,0.162 -2.70494,0.82844 -0.541504,0.45565 -0.984554,1.10365 -0.984554,1.44 0,0.54794 -0.250701,0.61156 -2.410042,0.61156 -1.898118,0 -2.451129,-0.10706 -2.603456,-0.50402 -0.34023,-0.88663 0.520845,-2.97289 1.699463,-4.11754 1.570077,-1.52484 3.633801,-2.14416 7.144905,-2.14416 5.570404,0 8.069028,1.45178 8.654772,5.02869 0.170857,1.04337 0.311484,4.8225 0.312505,8.39807 9.6e-4,3.86563 0.136141,6.75195 0.333111,7.12 0.31606,0.59056 0.199587,0.61896 -2.538436,0.61896 -2.504921,0 -2.893436,-0.0748 -3.056473,-0.58849 -0.176144,-0.55498 -0.278535,-0.54308 -1.798506,0.20915 -1.95992,0.96995 -5.592352,1.26416 -7.374621,0.5973 z m 7.077533,-4.54304 c 1.509229,-0.77161 2.031971,-1.66595 2.181421,-3.73208 l 0.14128,-1.95317 -0.921728,0.24709 c -0.50695,0.1359 -2.134618,0.49466 -3.617034,0.79725 -2.142358,0.4373 -2.848083,0.72778 -3.44,1.41592 -0.869961,1.01139 -0.934179,1.69714 -0.250355,2.67343 0.919024,1.3121 3.878346,1.58844 5.906416,0.55156 z m 59.837175,4.68511 c -3.52392,-1.15548 -5.4176,-4.02572 -4.81501,-7.29806 0.30334,-1.64726 0.73878,-2.38644 2.1204,-3.59952 1.466,-1.28717 1.92559,-1.45807 6.99743,-2.60201 2.27741,-0.51367 4.2782,-1.07139 4.4462,-1.23939 0.47107,-0.47107 -0.35134,-2.12387 -1.26363,-2.53954 -0.43639,-0.19883 -1.56761,-0.36151 -2.51383,-0.36151 -1.38397,0 -1.91291,0.162 -2.70494,0.82844 -0.5415,0.45565 -0.98455,1.10365 -0.98455,1.44 0,0.55112 -0.25302,0.61156 -2.56,0.61156 h -2.56 l 0.002,-1.04 c 9.6e-4,-0.572 0.3249,-1.56907 0.72,-2.21571 1.54686,-2.53168 3.78929,-3.49349 8.17372,-3.50582 3.72141,-0.0105 5.99994,0.65191 7.47542,2.17314 l 1.06922,1.10239 0.16293,8.223 c 0.11518,5.8133 0.28259,8.43399 0.57126,8.943 l 0.40833,0.72 h -2.8697 c -2.50492,0 -2.89343,-0.0748 -3.05647,-0.58849 -0.17614,-0.55498 -0.27853,-0.54308 -1.79851,0.20915 -1.72414,0.85327 -5.46948,1.24775 -7.01991,0.73937 z m 6.72283,-4.68511 c 1.50922,-0.77161 2.03197,-1.66595 2.18142,-3.73208 l 0.14128,-1.95317 -0.92173,0.24709 c -0.50695,0.1359 -2.13462,0.49466 -3.61704,0.79725 -2.14235,0.4373 -2.84808,0.72778 -3.44,1.41592 -0.86996,1.01139 -0.93417,1.69714 -0.25035,2.67343 0.91902,1.3121 3.87834,1.58844 5.90642,0.55156 z m 68.21743,4.13415 c -1.23797,-0.61691 -1.89294,-1.21449 -2.54283,-2.32 L 194.72,237.12 v -8.32 -8.32 h 2.4 2.4 l 0.16,7.04 c 0.11067,4.86922 0.28627,7.26099 0.56948,7.75669 1.03577,1.8128 4.43174,2.28047 6.13746,0.84519 1.87842,-1.58058 2.03598,-2.23266 2.23309,-9.24188 l 0.17997,-6.4 2.32,-0.094 2.32,-0.094 V 230.70598 241.12 h -2.4 c -2.11394,0 -2.4,-0.0699 -2.4,-0.58667 0,-0.96792 -0.33023,-1.0149 -1.5815,-0.22501 -2.68085,1.69235 -6.26884,1.94203 -8.92031,0.62075 z m 46.16962,0.0739 c -0.90473,-0.42129 -2.19607,-1.41405 -2.94273,-2.26231 -4.58093,-5.2042 -2.68092,-15.49912 3.35311,-18.16825 2.59561,-1.14817 5.25775,-0.85845 8.80181,0.95788 0.132,0.0677 0.24,-2.049 0.24,-4.70366 v -4.82667 h 2.56 2.56 v 14.56 14.56 h -2.56 c -2.34667,0 -2.56,-0.0533 -2.56,-0.64 0,-0.67743 -0.46595,-0.8605 -0.80283,-0.31543 -0.11033,0.17852 -0.76109,0.61052 -1.44613,0.96 -1.80829,0.92252 -5.07964,0.86731 -7.20323,-0.12156 z m 7.52822,-4.87749 c 1.53865,-1.39008 2.03555,-2.95256 1.8695,-5.87851 -0.21771,-3.83609 -2.10434,-5.96297 -5.02209,-5.66162 -0.7681,0.0793 -1.7761,0.4205 -2.24,0.75816 -2.7731,2.01847 -3.0993,7.90126 -0.58817,10.60708 0.91459,0.98549 1.67765,1.28422 3.34381,1.30909 1.12657,0.0168 1.57769,-0.17723 2.63695,-1.1342 z m 23.44041,5.22647 c -4.07268,-1.55177 -5.72304,-6.1141 -3.4527,-9.54482 1.20308,-1.81797 3.09208,-2.7482 7.41164,-3.64983 4.73431,-0.9882 5.24462,-1.20297 5.24462,-2.20725 0,-2.7995 -6.84441,-2.8358 -7.5461,-0.04 -0.19438,0.77445 -0.30606,0.80993 -2.5497,0.80993 -1.29054,0 -2.43337,-0.14068 -2.53964,-0.31262 -0.33082,-0.53528 0.4525,-2.81101 1.32411,-3.84686 1.18786,-1.4117 3.04267,-2.2508 5.57295,-2.52116 4.51175,-0.48208 8.55012,0.57287 10.04175,2.62323 0.61003,0.83853 0.66839,1.48573 0.82236,9.12 0.0912,4.51957 0.28656,8.46941 0.43424,8.77741 0.24549,0.51199 0.0187,0.56 -2.64573,0.56 -2.3771,0 -2.91424,-0.0885 -2.91424,-0.48 0,-0.63618 -0.25724,-0.60802 -1.93989,0.21242 -1.70887,0.83322 -5.67252,1.10583 -7.26367,0.49957 z m 5.87973,-4.11448 c 0.80379,-0.2024 1.85567,-0.77858 2.38171,-1.30461 0.83484,-0.83486 0.94212,-1.1622 0.94212,-2.87484 0,-1.85318 -0.0296,-1.92406 -0.72,-1.7227 -0.396,0.1155 -1.728,0.42408 -2.96,0.68572 -3.88713,0.82553 -4.64,1.33843 -4.64,3.16102 0,0.88896 0.86343,1.81213 2.00713,2.146 1.07603,0.31412 1.42363,0.30358 2.98904,-0.0906 z M 110.24,240.84369 c -2.25191,-1.02437 -2.22241,-0.91017 -2.4,-9.29199 L 107.68,224 l -1.53609,-0.0982 -1.5361,-0.0982 0.0961,-1.66181 0.0961,-1.66181 1.50968,-0.0971 1.50968,-0.0971 0.0903,-3.58289 L 108,213.12 l 2.32,-0.094 2.32,-0.094 v 3.69402 3.69402 h 2.24 2.24 v 1.74538 1.74538 l -2.16,0.0946 L 112.8,224 v 5.98916 c 0,7.01887 0.056,7.16397 2.73209,7.0825 l 1.58791,-0.0483 v 2.01102 c 0,1.81499 -0.0702,2.02982 -0.72,2.20397 -1.50796,0.40412 -4.87882,0.18817 -6.16,-0.39462 z M 97.995568,230.8 98.08,220.48 h 2.4 2.4 l 0.0844,10.32 0.0844,10.32 H 100.48 97.911133 Z M 141.12,226.56 V 212 h 2.56 2.56 v 14.56 14.56 h -2.56 -2.56 z m 21.12,0 V 212 h 4.16 c 2.288,0 4.16,0.0866 4.16,0.19242 0,0.17551 4.92549,19.03322 5.32616,20.3917 0.0948,0.32126 0.23808,0.51831 0.31851,0.43788 0.0804,-0.0804 1.22468,-4.30328 2.5428,-9.38412 1.31811,-5.08083 2.54071,-9.77788 2.71688,-10.43788 l 0.32032,-1.2 h 3.98766 3.98767 v 14.56 14.56 h -2.72512 -2.72511 l 0.16946,-7.28 c 0.0932,-4.004 0.24328,-9.07177 0.33349,-11.2617 0.0902,-2.18994 0.0522,-3.87324 -0.0844,-3.74067 -0.1366,0.13257 -1.55531,5.16433 -3.15267,11.1817 l -2.9043,10.94067 -2.55968,0.092 -2.55968,0.092 -2.82577,-10.81203 c -1.55418,-5.94662 -2.94702,-11.02804 -3.09521,-11.29204 -0.14819,-0.264 -0.17513,4.596 -0.0599,10.8 l 0.20957,11.28 h -2.7703 -2.77038 z m 55.43557,4.24 0.0844,-10.32 h 2.4 2.4 l 0.10019,1.03885 0.10019,1.03886 1.17981,-0.92393 c 1.63859,-1.28322 3.26681,-1.72369 5.83524,-1.57856 1.80765,0.10214 2.43961,0.29466 3.56606,1.08636 2.28351,1.60492 2.46077,2.45495 2.48111,11.89842 l 0.0174,8.08 h -2.4 -2.4 l -0.002,-6.16 c -0.002,-8.09255 -0.45856,-9.65141 -2.94084,-10.04878 -1.64719,-0.26369 -2.57367,0.0372 -3.71768,1.2073 -1.35712,1.3881 -1.65969,3.13411 -1.65969,9.57723 L 222.72,241.12 h -2.56443 -2.56444 z m 45.44,0 0.0844,-10.32 2.32,-0.094 2.32,-0.094 V 230.70598 241.12 h -2.40443 -2.40444 z M 293.76,226.56 V 212 h 2.56 2.56 v 14.56 14.56 h -2.56 -2.56 z M 97.92,214.72 v -2.4 h 2.56 2.56 v 2.4 2.4 h -2.56 -2.56 z m 165.12,0 v -2.4 h 2.4 2.4 v 2.4 2.4 h -2.4 -2.4 z M 54.694544,168.80343 c -3.257338,-0.56629 -6.034454,-2.93167 -7.360752,-6.26941 -0.690285,-1.73717 -0.753488,-2.37103 -0.763203,-7.65402 -0.0096,-5.20017 0.06112,-5.96753 0.727254,-7.89522 0.931191,-2.69474 2.695127,-4.73922 5.113536,-5.92681 1.556138,-0.76416 2.210087,-0.89539 4.388621,-0.88063 2.117469,0.0143 2.841562,0.16291 4.188806,0.85945 3.010583,1.5565 4.649716,4.12842 5.434266,8.52675 1.012352,5.67546 0.179859,12.1311 -1.986538,15.40474 -1.911081,2.88784 -5.979168,4.48933 -9.74199,3.83515 z m 3.850454,-4.95567 c 0.502266,-0.25973 1.218727,-0.96658 1.592132,-1.57076 1.393145,-2.25415 1.693206,-10.93304 0.496224,-14.35261 C 59.882227,145.77855 58.613805,144.8 56.583446,144.8 c -1.392118,0 -1.749017,0.14157 -2.664294,1.05685 C 52.330374,147.44563 51.84,149.53602 51.84,154.72 c 0,2.91638 0.156717,4.89156 0.472477,5.95484 0.446787,1.5045 1.666531,3.03391 2.727523,3.41997 0.928899,0.33801 2.601622,0.2201 3.504998,-0.24705 z m 40.93394,4.95344 c -3.881978,-0.67363 -6.76281,-3.91946 -7.637248,-8.60488 -0.780893,-4.18417 -0.16993,-10.99887 1.290438,-14.39359 1.008429,-2.34416 3.575344,-4.65841 5.924458,-5.34132 2.059004,-0.59857 4.799494,-0.47754 6.644734,0.29345 2.24454,0.93783 4.6674,3.87672 4.69165,5.6909 0.009,0.67612 -0.40744,0.82173 -3.11291,1.08832 l -2.22539,0.21929 -0.19643,-0.98217 c -0.56405,-2.82025 -5.122755,-2.6626 -6.59751,0.22816 -0.666404,1.30627 -1.505149,5.38289 -1.175357,5.71268 0.108432,0.10843 0.522547,-0.10855 0.920256,-0.48217 1.803789,-1.69457 5.609641,-2.19389 8.100231,-1.06273 1.8378,0.83468 3.53344,2.70433 4.158,4.58469 0.72863,2.19369 0.51005,6.29788 -0.43268,8.12419 -1.86339,3.6099 -6.15785,5.65303 -10.352242,4.92518 z m 4.140322,-5.1294 c 1.9279,-1.17541 2.49836,-3.84048 1.33602,-6.24155 -0.74113,-1.53097 -1.69118,-2.07025 -3.64718,-2.07025 -3.23202,0 -4.924487,3.75955 -3.196644,7.10083 0.936618,1.81122 3.572664,2.39079 5.507804,1.21097 z M 24.64,166.5855 v -1.8945 l 3.28,-2.70055 c 4.302493,-3.54241 7.793069,-7.25492 8.746486,-9.30259 0.904826,-1.94331 1.023236,-4.55673 0.27226,-6.00896 -0.986925,-1.90851 -4.080909,-2.37873 -5.48758,-0.834 C 30.39421,147.00559 30.08,147.86127 30.08,149.57896 V 151.2 l -1.52,-0.004 c -0.836,-0.002 -2.077282,-0.0956 -2.758404,-0.2081 l -1.238405,-0.20458 0.200423,-1.70529 c 0.663781,-5.64774 4.118974,-8.89711 9.476386,-8.91189 3.210387,-0.009 5.020048,0.71226 6.824755,2.71953 1.740339,1.93567 2.27032,3.68054 2.069306,6.8128 -0.260314,4.05622 -2.153376,6.66645 -9.374061,12.9253 l -1.92,1.66424 6,0.0157 6,0.0158 v 2.08 2.08 h -9.6 -9.6 z m 44.8,0.0131 v -1.88141 l 2.849344,-2.27527 c 3.632944,-2.90099 7.500099,-6.72768 8.681661,-8.59081 3.004291,-4.73727 0.929904,-10.15053 -3.348627,-8.73849 -1.586701,0.52366 -2.449866,1.88124 -2.658416,4.18115 L 74.79111,151.2 73.155555,151.16214 C 72.256,151.14132 71.088,151.03115 70.56,150.91732 c -0.931408,-0.2008 -0.956573,-0.25447 -0.844957,-1.80214 0.150855,-2.09175 1.074771,-4.50762 2.284992,-5.97484 2.056922,-2.49373 6.523591,-3.70797 9.962493,-2.70826 4.105629,1.19354 6.208406,4.09335 6.183962,8.52792 -0.02355,4.27458 -1.907655,7.21023 -7.817572,12.18075 l -3.589865,3.01925 5.950473,0.0871 5.950474,0.0871 v 2.07294 2.07294 h -9.6 -9.6 v -1.8814 z M 55.749005,125.65462 c -2.029104,-0.72443 -3.150755,-1.69548 -3.944192,-3.41462 -0.725216,-1.57133 -0.764391,-3.31863 -0.109539,-4.88591 1.096086,-2.62331 3.15495,-3.83291 8.293065,-4.87223 4.740851,-0.95898 5.03737,-1.08755 4.912903,-2.13037 -0.159879,-1.33947 -1.569463,-2.1751 -3.619092,-2.14548 -2.047334,0.0296 -3.284265,0.71481 -3.80278,2.10661 l -0.35937,0.96462 -2.373798,-0.19909 c -1.305591,-0.10949 -2.431056,-0.25634 -2.501034,-0.32632 -0.364045,-0.36404 0.733197,-2.94741 1.712054,-4.03089 1.560192,-1.72695 3.626282,-2.38566 7.482778,-2.38566 4.47825,0 6.103418,0.66661 8.376528,3.43586 0.03107,0.0379 0.143152,3.81286 0.249027,8.38886 0.105879,4.576 0.311847,8.572 0.457712,8.88 0.242355,0.51175 0.01414,0.56 -2.64903,0.56 -2.73976,0 -2.914237,-0.0399 -2.914237,-0.66667 0,-0.36666 -0.108,-0.61131 -0.24,-0.54366 -3.665386,1.87851 -6.236829,2.24109 -8.970995,1.26495 z m 6.550163,-4.23498 c 0.495459,-0.18719 1.296832,-0.71814 1.780832,-1.17987 0.762794,-0.7277 0.88,-1.08726 0.88,-2.69964 0,-1.02307 -0.07841,-1.86013 -0.174234,-1.86013 -0.09583,0 -1.06783,0.20863 -2.16,0.46363 -1.092172,0.255 -2.541856,0.55254 -3.22152,0.66121 -2.532595,0.40492 -3.660147,2.92399 -1.921091,4.29193 0.945427,0.74368 3.28681,0.90064 4.816013,0.32287 z M 93.76,125.94076 c -0.44,-0.13433 -1.403894,-0.55274 -2.141987,-0.92981 -5.719571,-2.92195 -7.231866,-11.59128 -2.963885,-16.99067 3.556989,-4.49993 10.711312,-5.00442 14.812242,-1.04449 1.08852,1.05109 2.13363,2.57039 2.13363,3.1017 0,0.1041 -0.96906,0.62407 -2.15347,1.15548 -1.4328,0.64285 -2.19481,0.84217 -2.27701,0.5956 -0.0679,-0.20382 -0.54607,-0.85184 -1.06252,-1.44004 -2.349227,-2.67562 -6.486747,-2.0222 -7.977262,1.25981 -0.767997,1.69109 -0.817616,5.25129 -0.09321,6.68755 1.279911,2.53763 3.317472,3.65604 5.679194,3.11729 1.400109,-0.31939 2.854428,-1.56573 3.419848,-2.93077 0.21014,-0.50733 0.44139,-0.92241 0.51389,-0.92241 0.2442,0 3.14539,1.54502 3.70762,1.97447 0.52108,0.39804 0.49549,0.53291 -0.3962,2.08754 -1.07635,1.87659 -3.145,3.4712 -5.372931,4.14171 -1.552039,0.46709 -4.518355,0.53684 -5.827949,0.13704 z m 20.26638,-0.27452 C 109.53925,124.06517 107.2,120.40801 107.2,114.99392 c 0,-3.21262 0.87642,-5.62987 2.77846,-7.66331 2.01761,-2.15699 4.063,-2.9775 7.46827,-2.99588 2.44685,-0.0132 2.94402,0.0922 4.84367,1.02744 3.27947,1.61448 4.92821,4.34724 5.30027,8.78511 l 0.18215,2.17272 H 120.20641 112.64 v 0.75199 c 0,0.41359 0.41732,1.32808 0.92739,2.0322 2.06979,2.85727 6.58359,3.1235 9.16643,0.54066 l 1.12174,-1.12174 1.91222,1.16161 c 1.05172,0.63889 1.91222,1.34885 1.91222,1.57769 0,0.7109 -2.83852,3.07387 -4.74395,3.94918 -2.4302,1.11638 -6.47644,1.32286 -8.90967,0.45465 z M 122.24,112.12836 c 0,-0.1934 -0.23133,-0.83913 -0.51407,-1.43495 -1.73926,-3.66523 -7.6564,-2.95655 -8.90551,1.06659 l -0.22355,0.72 h 4.82157 c 3.29025,0 4.82156,-0.11168 4.82156,-0.35164 z m 24.32,13.8124 c -2.94795,-0.89998 -5.39306,-3.00528 -6.68166,-5.75309 -0.72939,-1.55534 -0.83834,-2.20355 -0.83834,-4.98767 0,-3.80137 0.56225,-5.32903 2.86896,-7.79509 2.09529,-2.24004 4.09497,-3.05341 7.53104,-3.06326 2.26212,-0.007 3.01873,0.13116 4.4946,0.81763 2.51735,1.17091 3.9773,2.58073 5.15971,4.98253 0.9084,1.84523 1.02967,2.40752 1.04657,4.85263 0.0273,3.94225 -0.66664,5.74778 -3.1727,8.25541 -1.53654,1.53749 -2.34567,2.08182 -3.68648,2.48 -1.7763,0.5275 -5.32041,0.63871 -6.7217,0.21091 z m 5.4382,-4.90076 c 1.9615,-0.99892 2.88423,-2.81253 2.87477,-5.65033 -0.0117,-3.5264 -1.42397,-5.69482 -4.19475,-6.44092 -5.37774,-1.44807 -8.94809,6.27482 -4.98671,10.78658 1.84055,2.09628 3.91116,2.52463 6.30669,1.30467 z m 37.2818,4.92035 c -6.49998,-1.71492 -7.11226,-9.76915 -0.93874,-12.34861 0.5852,-0.24451 2.61457,-0.75844 4.50971,-1.14206 1.89514,-0.38362 3.77496,-0.82267 4.17737,-0.97566 1.49417,-0.56808 0.52114,-2.62754 -1.49835,-3.17133 -2.33369,-0.6284 -5.44999,0.7092 -5.44999,2.33928 0,0.58802 -0.16345,0.61805 -2.431,0.44655 -1.33705,-0.10112 -2.50892,-0.26177 -2.60416,-0.35701 -0.38859,-0.38859 0.69026,-3.0882 1.61015,-4.02908 1.34784,-1.3786 2.37046,-1.85386 4.92418,-2.28848 4.22821,-0.71961 8.86207,0.47753 10.48449,2.70864 0.60965,0.83838 0.66813,1.48713 0.82207,9.12 0.0912,4.51957 0.28656,8.46941 0.43424,8.77741 0.24549,0.51199 0.0187,0.56 -2.64573,0.56 -2.73976,0 -2.91424,-0.0399 -2.91424,-0.66667 0,-0.36666 -0.108,-0.61242 -0.24,-0.54611 -3.10029,1.55722 -6.1172,2.13319 -8.24,1.57313 z m 6.03655,-4.64157 c 1.72958,-0.72267 2.44345,-1.91291 2.44345,-4.07401 v -1.86893 l -0.88,0.33889 c -0.484,0.1864 -1.96,0.54502 -3.28,0.79694 -2.97031,0.56689 -3.96624,1.23862 -4.09713,2.76342 -0.0782,0.91136 0.0702,1.26317 0.76316,1.80821 1.02194,0.80386 3.42232,0.91578 5.05052,0.23548 z M 25.676772,110.96 25.76,96.32 l 8.021318,0.01373 8.021322,0.01373 1.821338,0.891101 c 3.387996,1.65759 4.781913,4.904369 3.681868,8.575989 -0.342016,1.14154 -2.058028,3.07506 -3.180531,3.58366 -0.297997,0.13503 -0.327353,0.25874 -0.08874,0.37397 3.42599,1.65443 4.927792,3.99145 4.9164,7.65063 -0.0088,2.81467 -0.700365,4.43717 -2.57553,6.04224 C 44.121466,125.3961 42.910579,125.6 33.698691,125.6 h -8.105147 z m 15.862486,9.1918 c 2.000896,-1.21992 2.466012,-4.00175 0.984076,-5.88573 C 41.247514,112.64413 40.220806,112.36176 35.52,112.34 l -4.32,-0.02 -0.08929,4.24 -0.08929,4.24 4.729286,-0.001 c 4.178954,-9.6e-4 4.852554,-0.0763 5.788548,-0.64701 z m -1.7308,-12.598 c 2.240518,-0.93615 2.84367,-3.53786 1.231542,-5.31231 -1.083226,-1.19228 -3.320502,-1.67025 -7.183699,-1.5347 L 31.2,100.8 l -0.09048,3.6 -0.09048,3.6 h 3.860759 c 2.577882,0 4.215607,-0.14827 4.928659,-0.4462 z M 74.24,115.2 v -10.4 h 2.4 2.4 v 1.12 c 0,0.616 0.05677,1.12 0.126157,1.12 0.06939,0 0.559885,-0.40516 1.089997,-0.90036 1.042441,-0.97378 2.902489,-1.65964 4.500972,-1.65964 H 85.76 v 2.41004 c 0,2.58318 0.04314,2.52053 -1.96424,2.85282 -1.701373,0.28164 -3.216448,1.42572 -4.03576,3.04753 -0.666269,1.31886 -0.72,1.85002 -0.72,7.11742 V 125.6 h -2.4 -2.4 z M 130.95676,110.97352 131.04,96.32 h 2.4 2.4 v 14.56 14.56 l -2.48324,0.0935 -2.48323,0.0935 z M 163.2,115.18654 v -10.41346 l 2.48,0.0935 c 2.42698,0.0915 2.48212,0.11186 2.57939,0.95411 l 0.0994,0.86066 1.44043,-0.91349 c 3.97809,-2.52283 8.77298,-1.80366 10.67988,1.60185 0.78921,1.40943 0.80242,1.55322 0.90459,9.84422 l 0.10368,8.41388 -2.50368,-0.0939 -2.50368,-0.0939 -0.16,-7.05535 c -0.13577,-5.98686 -0.24435,-7.18389 -0.71697,-7.90412 -1.08594,-1.65486 -4.12435,-1.73968 -5.61152,-0.15665 -1.46103,1.55519 -1.67151,2.71191 -1.67151,9.18584 V 125.6 h -2.56 -2.56 z"
       id="path4143" />
  </g>
</svg>
